<svg width="394" height="289" viewBox="0 0 394 289" fill="none" xmlns="http://www.w3.org/2000/svg">
<path d="M174.641 253.601C271.093 253.601 349.282 245.101 349.282 234.617C349.282 224.132 271.093 215.633 174.641 215.633C78.1894 215.633 0 224.132 0 234.617C0 245.101 78.1894 253.601 174.641 253.601Z" fill="#1C0E0C"/>
<path d="M190.336 269.823H207.849C210.461 269.823 212.578 267.706 212.578 265.094V263.909C212.578 261.297 210.461 259.18 207.849 259.18H190.336C187.724 259.18 185.607 261.297 185.607 263.909V265.094C185.607 267.706 187.724 269.823 190.336 269.823Z" fill="#F7F3EF" stroke="#191919" stroke-width="4" stroke-linecap="round" stroke-linejoin="round"/>
<path d="M365.281 286.61H219.584C214.418 286.61 209.463 284.558 205.81 280.904C202.156 277.251 200.104 272.296 200.104 267.13V262.239C200.104 257.073 202.156 252.118 205.81 248.465C209.463 244.811 214.418 242.759 219.584 242.759L365.281 242.759V286.61Z" fill="#F7F3EF" stroke="#191919" stroke-width="4" stroke-linecap="round" stroke-linejoin="round"/>
<path d="M365.275 286.473C374.803 286.473 382.527 276.688 382.527 264.616C382.527 252.545 374.803 242.759 365.275 242.759C355.746 242.759 348.022 252.545 348.022 264.616C348.022 276.688 355.746 286.473 365.275 286.473Z" fill="#F7F3EF" stroke="#191919" stroke-width="4" stroke-linecap="round" stroke-linejoin="round"/>
<path d="M369.122 269.823H386.636C389.247 269.823 391.365 267.706 391.365 265.094V263.909C391.365 261.297 389.247 259.18 386.636 259.18H369.122C366.511 259.18 364.394 261.297 364.394 263.909V265.094C364.394 267.706 366.511 269.823 369.122 269.823Z" fill="#F7F3EF" stroke="#191919" stroke-width="4" stroke-linecap="round" stroke-linejoin="round"/>
<path d="M177.185 208.794C177.313 208.856 177.418 208.954 177.488 209.077C177.559 209.2 177.59 209.341 177.579 209.482C177.567 209.623 177.514 209.757 177.425 209.867C177.336 209.976 177.215 210.057 177.08 210.097C153.783 216.756 125.285 220.678 94.5411 220.678C63.648 220.678 35.0449 216.725 11.6982 210.016C11.5742 209.976 11.4639 209.902 11.3796 209.803C11.2954 209.703 11.2405 209.582 11.2211 209.453C11.2018 209.325 11.2188 209.193 11.2702 209.073C11.3215 208.953 11.4053 208.85 11.512 208.775C19.0398 203.73 65.3112 202.209 94.5411 202.209C123.157 202.197 168.69 204.921 177.185 208.794Z" fill="#F7F3EF" stroke="#191919" stroke-width="4" stroke-linecap="round" stroke-linejoin="round"/>
<path d="M112.625 204.096C112.625 204.096 124.807 202.166 121.698 190.393" stroke="#191919" stroke-width="4" stroke-linecap="round" stroke-linejoin="round"/>
<path d="M115.012 212.935C117.456 210.265 117.272 206.12 114.603 203.676C111.933 201.232 107.787 201.416 105.344 204.085C102.9 206.755 103.083 210.9 105.753 213.344C108.422 215.788 112.568 215.605 115.012 212.935Z" fill="#EA631F" stroke="#191919" stroke-width="4" stroke-linecap="round" stroke-linejoin="round"/>
<path d="M128.612 204.133C128.612 204.133 122.474 201.285 122.145 195.532Z" fill="#F7F3EF"/>
<path d="M128.612 204.133C128.612 204.133 122.474 201.285 122.145 195.532" stroke="#191919" stroke-width="4" stroke-linecap="round" stroke-linejoin="round"/>
<path d="M133.072 212.486C135.502 210.753 136.067 207.377 134.333 204.947C132.6 202.516 129.224 201.951 126.794 203.685C124.364 205.419 123.799 208.794 125.532 211.224C127.266 213.655 130.641 214.22 133.072 212.486Z" fill="#EA631F" stroke="#191919" stroke-width="4" stroke-linecap="round" stroke-linejoin="round"/>
<path d="M60.2223 222.881C60.2223 222.881 72.4045 220.945 69.3016 209.172Z" fill="#F7F3EF"/>
<path d="M60.2223 222.881C60.2223 222.881 72.4045 220.945 69.3016 209.172" stroke="#191919" stroke-width="4" stroke-linecap="round" stroke-linejoin="round"/>
<path d="M60.3518 233.317C63.6798 231.894 65.2241 228.043 63.8012 224.715C62.3783 221.387 58.5269 219.843 55.199 221.266C51.871 222.689 50.3267 226.54 51.7496 229.868C53.1726 233.196 57.0239 234.74 60.3518 233.317Z" fill="#F7F3EF" stroke="#191919" stroke-width="4" stroke-linecap="round" stroke-linejoin="round"/>
<path d="M76.2088 222.919C76.2088 222.919 70.0773 220.064 69.7484 214.311Z" fill="#F7F3EF"/>
<path d="M76.2088 222.919C76.2088 222.919 70.0773 220.064 69.7484 214.311" stroke="#191919" stroke-width="4" stroke-linecap="round" stroke-linejoin="round"/>
<path d="M79.1792 232.012C82.02 231.094 83.5791 228.047 82.6616 225.207C81.744 222.366 78.6973 220.807 75.8565 221.724C73.0157 222.642 71.4566 225.689 72.3741 228.529C73.2917 231.37 76.3384 232.929 79.1792 232.012Z" fill="#F7F3EF" stroke="#191919" stroke-width="4" stroke-linecap="round" stroke-linejoin="round"/>
<path d="M100.548 220.964C100.548 220.964 112.557 224.526 117.695 213.517Z" fill="#F7F3EF"/>
<path d="M100.548 220.964C100.548 220.964 112.557 224.526 117.695 213.517" stroke="#191919" stroke-width="4" stroke-linecap="round" stroke-linejoin="round"/>
<path d="M100.725 225.558C103.328 223.043 103.401 218.895 100.886 216.291C98.3722 213.687 94.2234 213.615 91.6198 216.129C89.0162 218.643 88.9438 222.792 91.4581 225.396C93.9723 227.999 98.1211 228.072 100.725 225.558Z" fill="#EA631F" stroke="#191919" stroke-width="4" stroke-linecap="round" stroke-linejoin="round"/>
<path d="M119.414 230.322C119.414 230.322 131.417 233.884 136.561 222.875Z" fill="#F7F3EF"/>
<path d="M119.414 230.322C119.414 230.322 131.417 233.884 136.561 222.875" stroke="#191919" stroke-width="4" stroke-linecap="round" stroke-linejoin="round"/>
<path d="M121.579 230.583C121.79 226.969 119.032 223.869 115.418 223.659C111.805 223.448 108.705 226.206 108.494 229.819C108.283 233.432 111.042 236.532 114.655 236.743C118.268 236.954 121.368 234.196 121.579 230.583Z" fill="#F7F3EF" stroke="#191919" stroke-width="4" stroke-linecap="round" stroke-linejoin="round"/>
<path d="M152.508 228.102C153.596 224.65 151.68 220.97 148.227 219.882C144.775 218.795 141.095 220.711 140.007 224.163C138.92 227.615 140.836 231.296 144.288 232.383C147.74 233.471 151.421 231.554 152.508 228.102Z" fill="#F7F3EF" stroke="#191919" stroke-width="4" stroke-linecap="round" stroke-linejoin="round"/>
<path d="M123.504 214.758C123.504 214.758 118.074 210.724 118.918 205.021Z" fill="#F7F3EF"/>
<path d="M123.504 214.758C123.504 214.758 118.074 210.724 118.918 205.021" stroke="#191919" stroke-width="4" stroke-linecap="round" stroke-linejoin="round"/>
<path d="M124.605 224.264C127.571 223.925 129.701 221.246 129.362 218.28C129.023 215.314 126.343 213.184 123.377 213.523C120.411 213.862 118.282 216.541 118.621 219.507C118.96 222.473 121.639 224.603 124.605 224.264Z" fill="#EA631F" stroke="#191919" stroke-width="4" stroke-linecap="round" stroke-linejoin="round"/>
<path d="M155.105 213.908C155.105 213.908 148.415 212.915 146.46 207.497Z" fill="#F7F3EF"/>
<path d="M155.105 213.908C155.105 213.908 148.415 212.915 146.46 207.497" stroke="#191919" stroke-width="4" stroke-linecap="round" stroke-linejoin="round"/>
<path d="M157.494 222.726C160.479 222.726 162.899 220.306 162.899 217.321C162.899 214.336 160.479 211.915 157.494 211.915C154.509 211.915 152.089 214.336 152.089 217.321C152.089 220.306 154.509 222.726 157.494 222.726Z" fill="#EA631F" stroke="#191919" stroke-width="4" stroke-linecap="round" stroke-linejoin="round"/>
<path d="M48.5056 210.724C48.5056 210.724 42.461 206.609 43.1126 200.422Z" fill="#F7F3EF"/>
<path d="M48.5056 210.724C48.5056 210.724 42.461 206.609 43.1126 200.422" stroke="#191919" stroke-width="4" stroke-linecap="round" stroke-linejoin="round"/>
<path d="M52.1802 220.196C54.9706 218.571 55.9161 214.993 54.2921 212.202C52.668 209.412 49.0893 208.466 46.2989 210.09C43.5084 211.715 42.5629 215.293 44.187 218.084C45.8111 220.874 49.3897 221.82 52.1802 220.196Z" fill="#EA631F" stroke="#191919" stroke-width="4" stroke-linecap="round" stroke-linejoin="round"/>
<path d="M141.808 217.019C142.16 214.777 140.628 212.675 138.386 212.323C136.145 211.971 134.043 213.503 133.691 215.745C133.339 217.986 134.871 220.088 137.112 220.44C139.354 220.792 141.456 219.26 141.808 217.019Z" fill="#EA631F" stroke="#191919" stroke-width="4" stroke-linecap="round" stroke-linejoin="round"/>
<path d="M63.5151 217.241C65.6001 216.346 66.5649 213.93 65.67 211.845C64.775 209.76 62.3593 208.796 60.2743 209.691C58.1893 210.586 57.2245 213.001 58.1194 215.086C59.0144 217.171 61.4301 218.136 63.5151 217.241Z" fill="#EA631F" stroke="#191919" stroke-width="4" stroke-linecap="round" stroke-linejoin="round"/>
<path d="M34.9381 219.012C36.7085 216.449 36.0656 212.935 33.502 211.165C30.9384 209.394 27.425 210.037 25.6545 212.601C23.884 215.164 24.5269 218.678 27.0905 220.448C29.6541 222.219 33.1676 221.576 34.9381 219.012Z" fill="#EA631F" stroke="#191919" stroke-width="4" stroke-linecap="round" stroke-linejoin="round"/>
<path d="M97.9792 231.818C97.8011 232.61 97.8617 233.437 98.1532 234.194C98.4447 234.952 98.9542 235.606 99.6172 236.075C100.28 236.543 101.067 236.804 101.879 236.826C102.69 236.847 103.49 236.628 104.177 236.196C104.864 235.763 105.407 235.137 105.738 234.396C106.069 233.654 106.174 232.832 106.038 232.031C105.902 231.231 105.532 230.489 104.975 229.899C104.418 229.309 103.698 228.897 102.907 228.715C102.379 228.595 101.834 228.58 101.3 228.671C100.767 228.761 100.257 228.957 99.7996 229.245C99.342 229.533 98.9456 229.909 98.6333 230.35C98.3209 230.792 98.0987 231.29 97.9792 231.818V231.818Z" fill="#F7F3EF" stroke="#191919" stroke-width="4" stroke-linecap="round" stroke-linejoin="round"/>
<path d="M86.0529 214.432C86.9481 211.584 85.3651 208.549 82.5172 207.654C79.6693 206.759 76.6349 208.342 75.7397 211.19C74.8445 214.038 76.4275 217.072 79.2754 217.967C82.1233 218.863 85.1577 217.28 86.0529 214.432Z" fill="#EA631F" stroke="#191919" stroke-width="4" stroke-linecap="round" stroke-linejoin="round"/>
<path d="M41.5252 230.227C44.4912 229.888 46.6208 227.209 46.2818 224.243C45.9428 221.277 43.2636 219.147 40.2976 219.486C37.3317 219.825 35.202 222.504 35.541 225.47C35.88 228.436 38.5592 230.566 41.5252 230.227Z" fill="#F7F3EF" stroke="#191919" stroke-width="4" stroke-linecap="round" stroke-linejoin="round"/>
<path d="M94.1272 236.245C95.0224 233.397 93.4395 230.362 90.5916 229.467C87.7436 228.572 84.7092 230.155 83.814 233.003C82.9188 235.851 84.5018 238.885 87.3497 239.78C90.1976 240.676 93.232 239.093 94.1272 236.245Z" fill="#F7F3EF" stroke="#191919" stroke-width="4" stroke-linecap="round" stroke-linejoin="round"/>
<path opacity="0.5" d="M177.589 209.992C177.111 228.479 140.639 242.765 94.5287 242.765C48.4186 242.765 11.9216 228.181 11.4437 209.663C35.0262 216.589 63.0894 220.356 94.5163 220.356C125.943 220.356 154.025 216.911 177.589 209.992Z" fill="#F7F3EF" stroke="#191919" stroke-width="4" stroke-linecap="round" stroke-linejoin="round"/>
<path d="M177.589 209.992C177.111 228.479 140.639 242.765 94.5287 242.765C48.4186 242.765 11.9216 228.181 11.4437 209.663C35.0262 216.589 63.0894 220.356 94.5163 220.356C125.943 220.356 154.025 216.911 177.589 209.992Z" fill="#F7F3EF" stroke="#191919" stroke-width="4" stroke-linecap="round" stroke-linejoin="round"/>
<path d="M156.495 74.0508H309.607C313.972 74.0508 318.159 75.7848 321.245 78.8713C324.331 81.9578 326.065 86.144 326.065 90.5089V143.65H140.037V90.5089C140.037 86.144 141.771 81.9578 144.857 78.8713C147.944 75.7848 152.13 74.0508 156.495 74.0508V74.0508Z" fill="#F7F3EF" stroke="#191919" stroke-width="4" stroke-linecap="round" stroke-linejoin="round"/>
<path d="M294.421 45.9566V74.0508H174.647V45.9566C174.646 44.2335 174.985 42.5271 175.644 40.9351C176.303 39.343 177.269 37.8964 178.488 36.678C179.706 35.4596 181.153 34.4933 182.745 33.8342C184.337 33.1752 186.043 32.8364 187.766 32.8373H281.327C284.606 32.8455 287.762 34.0817 290.175 36.3023C292.587 38.5228 294.08 41.5665 294.359 44.8333C294.403 45.2057 294.421 45.578 294.421 45.9566Z" fill="#F7F3EF" stroke="#191919" stroke-width="4" stroke-linecap="round" stroke-linejoin="round"/>
<path d="M317.942 75.9933V93.8974C317.942 96.8913 316.753 99.7626 314.636 101.88C312.519 103.997 309.647 105.186 306.653 105.186C303.66 105.186 300.788 103.997 298.671 101.88C296.554 99.7626 295.365 96.8913 295.365 93.8974V91.7874C295.415 90.2479 295.156 88.714 294.602 87.2768C294.048 85.8397 293.21 84.5287 292.139 83.4218C291.068 82.3148 289.785 81.4347 288.367 80.8335C286.949 80.2324 285.424 79.9226 283.884 79.9226C282.344 79.9226 280.819 80.2324 279.401 80.8335C277.983 81.4347 276.7 82.3148 275.629 83.4218C274.558 84.5287 273.72 85.8397 273.166 87.2768C272.612 88.714 272.352 90.2479 272.403 91.7874V117.014C272.328 120.468 270.903 123.755 268.434 126.171C265.965 128.588 262.648 129.941 259.194 129.941C255.739 129.941 252.422 128.588 249.953 126.171C247.484 123.755 246.059 120.468 245.984 117.014V100.879C245.984 98.6768 245.109 96.5648 243.552 95.0076C241.995 93.4503 239.883 92.5755 237.681 92.5755H237.426C235.287 92.5755 233.235 93.4255 231.722 94.9385C230.209 96.4515 229.359 98.5035 229.359 100.643V109.387C229.359 112.103 228.28 114.708 226.359 116.628C224.439 118.548 221.835 119.627 219.119 119.627C216.403 119.627 213.799 118.548 211.878 116.628C209.958 114.708 208.879 112.103 208.879 109.387V88.2934C208.879 83.7259 205.156 80.6477 200.594 80.6477H200.346C195.909 80.6477 192.315 83.6142 192.315 88.0514V104.063C192.315 105.163 192.099 106.253 191.677 107.27C191.256 108.287 190.638 109.211 189.859 109.989C189.081 110.767 188.156 111.384 187.139 111.805C186.122 112.225 185.032 112.441 183.931 112.441H183.683C182.615 112.441 181.557 112.23 180.57 111.821C179.584 111.412 178.687 110.813 177.932 110.057C177.177 109.302 176.578 108.405 176.17 107.418C175.762 106.431 175.552 105.373 175.553 104.305V100.96C175.553 97.7963 174.297 94.7624 172.06 92.5255C169.823 90.2886 166.789 89.0319 163.625 89.0319C160.462 89.0319 157.428 90.2886 155.191 92.5255C152.954 94.7624 151.698 97.7963 151.698 100.96V110.43C151.698 111.841 151.42 113.239 150.879 114.542C150.339 115.846 149.547 117.031 148.549 118.028C147.551 119.026 146.366 119.817 145.062 120.356C143.758 120.896 142.36 121.173 140.949 121.172V89.3236C140.951 85.5253 142.46 81.8831 145.146 79.1973C147.832 76.5116 151.474 75.002 155.272 75.0003H312.698C314.493 74.9995 316.272 75.3364 317.942 75.9933V75.9933Z" fill="#EFAF00" stroke="black" stroke-width="4" stroke-linecap="round" stroke-linejoin="round"/>
<path d="M193.054 131.952C193.054 131.952 205.801 129.848 203.753 117.846Z" fill="#F7F3EF"/>
<path d="M193.054 131.952C193.054 131.952 205.801 129.848 203.753 117.846" stroke="#191919" stroke-width="4" stroke-linecap="round" stroke-linejoin="round"/>
<path d="M196.763 136.468C196.953 132.854 194.176 129.77 190.562 129.581C186.947 129.391 183.864 132.168 183.674 135.782C183.485 139.397 186.261 142.48 189.876 142.67C193.49 142.859 196.574 140.083 196.763 136.468Z" fill="#EA631F" stroke="#191919" stroke-width="4" stroke-linecap="round" stroke-linejoin="round"/>
<path d="M208.972 133.411C208.972 133.411 203.12 130.028 203.3 124.269Z" fill="#F7F3EF"/>
<path d="M208.972 133.411C208.972 133.411 203.12 130.028 203.3 124.269" stroke="#191919" stroke-width="4" stroke-linecap="round" stroke-linejoin="round"/>
<path d="M213.032 141.87C215.481 140.163 216.083 136.794 214.376 134.345C212.67 131.896 209.301 131.294 206.851 133C204.402 134.707 203.8 138.076 205.507 140.526C207.213 142.975 210.583 143.577 213.032 141.87Z" fill="#EA631F" stroke="#191919" stroke-width="4" stroke-linecap="round" stroke-linejoin="round"/>
<path d="M325.147 120.819C324.785 120.819 324.426 120.747 324.091 120.608C323.756 120.469 323.452 120.266 323.197 120.009C322.941 119.753 322.738 119.448 322.6 119.113C322.462 118.778 322.391 118.419 322.392 118.057V114.824C322.374 114.45 322.432 114.077 322.563 113.727C322.693 113.377 322.894 113.057 323.152 112.787C323.41 112.516 323.72 112.301 324.063 112.154C324.407 112.007 324.777 111.931 325.15 111.931C325.524 111.931 325.894 112.007 326.237 112.154C326.581 112.301 326.891 112.516 327.149 112.787C327.407 113.057 327.607 113.377 327.738 113.727C327.868 114.077 327.926 114.45 327.909 114.824V118.057C327.909 118.789 327.618 119.492 327.1 120.01C326.582 120.528 325.88 120.819 325.147 120.819Z" fill="#F7F3EF" stroke="#191919" stroke-width="4" stroke-linecap="round" stroke-linejoin="round"/>
<path d="M288.489 98.589C287.627 98.5874 286.802 98.2441 286.193 97.6344C285.585 97.0247 285.243 96.1985 285.243 95.3371V92.1039C285.243 91.243 285.585 90.4175 286.194 89.8088C286.802 89.2001 287.628 88.8582 288.489 88.8582C289.349 88.8582 290.175 89.2001 290.784 89.8088C291.392 90.4175 291.734 91.243 291.734 92.1039V95.3371C291.734 96.1985 291.393 97.0247 290.784 97.6344C290.176 98.2441 289.35 98.5874 288.489 98.589Z" fill="#F7F3EF" stroke="#191919" stroke-width="4" stroke-linecap="round" stroke-linejoin="round"/>
<path d="M148.042 133.677C147.616 133.677 147.194 133.593 146.8 133.43C146.407 133.267 146.049 133.028 145.747 132.727C145.446 132.425 145.207 132.068 145.044 131.674C144.881 131.28 144.797 130.858 144.797 130.432V127.198C144.778 126.76 144.847 126.322 145.002 125.911C145.157 125.5 145.393 125.125 145.696 124.808C146 124.491 146.365 124.238 146.768 124.066C147.172 123.893 147.606 123.804 148.045 123.804C148.484 123.804 148.919 123.893 149.323 124.066C149.726 124.238 150.091 124.491 150.395 124.808C150.698 125.125 150.934 125.5 151.089 125.911C151.244 126.322 151.313 126.76 151.294 127.198V130.432C151.293 131.293 150.949 132.119 150.34 132.727C149.73 133.336 148.904 133.677 148.042 133.677Z" fill="#F7F3EF" stroke="#191919" stroke-width="4" stroke-linecap="round" stroke-linejoin="round"/>
<path d="M174.641 44.8333C174.854 46.3917 175.634 47.8168 176.832 48.8361C178.333 50.1248 180.252 50.8239 182.231 50.8034C186.451 50.8034 189.87 47.7935 189.87 44.0824V42.8412C189.882 41.9194 190.092 41.0109 190.485 40.1769C190.877 39.343 191.445 38.603 192.148 38.0068C193.677 36.6935 195.631 35.981 197.646 36.0023C201.941 36.0023 205.422 39.0618 205.422 42.8288V57.8409C205.432 58.9054 205.671 59.9553 206.123 60.9191C206.575 61.8829 207.229 62.738 208.041 63.4263C209.801 64.9297 212.044 65.7473 214.359 65.7287C219.324 65.7287 223.302 62.2037 223.302 57.8658V48.2093C223.302 45.4787 225.821 43.2446 228.924 43.2446H229.092C232.102 43.2446 234.547 45.3918 234.547 48.0418V53.2423C234.557 54.0637 234.743 54.8733 235.093 55.6164C235.443 56.3594 235.949 57.0186 236.576 57.5493C237.938 58.7176 239.678 59.3507 241.472 59.3304C245.295 59.3304 248.398 56.606 248.398 53.2423V40.7622C248.398 38.0378 250.881 36.2133 253.984 36.2133H254.151C257.155 36.2133 259.588 37.9758 259.588 40.6133V50.158C259.588 52.9196 262.126 55.1227 265.26 55.1227H265.427C268.468 55.1227 270.932 52.9569 270.932 50.2821V48.2714C270.944 47.3141 271.161 46.3705 271.569 45.5044C271.977 44.6382 272.566 43.8697 273.296 43.2508C274.885 41.8893 276.914 41.1505 279.006 41.1718C283.468 41.1718 287.074 44.3493 287.074 48.2714V53.9064C287.084 54.768 287.279 55.6175 287.646 56.397C288.013 57.1766 288.544 57.868 289.202 58.4243C290.634 59.6486 292.463 60.3103 294.347 60.2861V45.9566C294.348 44.2335 294.009 42.5271 293.35 40.9351C292.691 39.343 291.725 37.8964 290.506 36.678C289.288 35.4596 287.841 34.4933 286.249 33.8342C284.657 33.1752 282.951 32.8364 281.228 32.8373H187.711C184.425 32.8362 181.259 34.0683 178.839 36.2897C176.419 38.5111 174.921 41.5601 174.641 44.8333V44.8333Z" fill="#EFAF00" stroke="black" stroke-width="4" stroke-linecap="round" stroke-linejoin="round"/>
<path d="M267.246 63.8296C267.246 63.8296 278.361 61.9679 276.555 51.5295Z" fill="#F7F3EF"/>
<path d="M267.246 63.8296C267.246 63.8296 278.361 61.9679 276.555 51.5295" stroke="#191919" stroke-width="4" stroke-linecap="round" stroke-linejoin="round"/>
<path d="M266.841 72.8126C269.785 71.6742 271.249 68.3645 270.11 65.4203C268.972 62.4761 265.662 61.0122 262.718 62.1506C259.774 63.2891 258.31 66.5987 259.448 69.543C260.587 72.4872 263.896 73.9511 266.841 72.8126Z" fill="#EA631F" stroke="#191919" stroke-width="4" stroke-linecap="round" stroke-linejoin="round"/>
<path d="M281.128 65.1019C281.128 65.1019 276.021 62.154 276.164 57.1272Z" fill="#F7F3EF"/>
<path d="M281.128 65.1019C281.128 65.1019 276.021 62.154 276.164 57.1272" stroke="#191919" stroke-width="4" stroke-linecap="round" stroke-linejoin="round"/>
<path d="M277.287 68.0993C277.181 69.0265 277.353 69.9642 277.78 70.7939C278.207 71.6235 278.871 72.3078 279.687 72.7601C280.503 73.2124 281.435 73.4123 282.365 73.3347C283.295 73.2571 284.181 72.9053 284.911 72.3239C285.641 71.7426 286.182 70.9577 286.466 70.0687C286.75 69.1797 286.764 68.2265 286.505 67.3297C286.247 66.433 285.729 65.6329 285.016 65.0309C284.303 64.4288 283.427 64.0518 282.5 63.9476C281.258 63.808 280.012 64.1667 279.035 64.9451C278.057 65.7235 277.429 66.8579 277.287 68.0993V68.0993Z" fill="#EA631F" stroke="#191919" stroke-width="4" stroke-linecap="round" stroke-linejoin="round"/>
<path d="M202.475 214.832H254.369C256.939 214.832 259.405 215.854 261.223 217.671C263.041 219.489 264.062 221.955 264.062 224.526V226.667H192.787V224.52C192.789 221.951 193.81 219.488 195.626 217.671C197.443 215.855 199.906 214.834 202.475 214.832V214.832Z" fill="#F7F3EF" stroke="#191919" stroke-width="4" stroke-linecap="round" stroke-linejoin="round"/>
<path d="M201.215 214.832C203.955 214.832 206.583 213.744 208.521 211.806C210.459 209.868 211.548 207.24 211.548 204.499V170.547C211.548 169.19 211.282 167.846 210.763 166.592C210.244 165.338 209.483 164.198 208.523 163.238C207.563 162.279 206.424 161.518 205.17 160.999C203.916 160.48 202.572 160.213 201.215 160.214H255.628C252.888 160.214 250.26 161.303 248.322 163.24C246.384 165.178 245.295 167.806 245.295 170.547V204.499C245.297 207.239 246.386 209.867 248.324 211.804C250.261 213.741 252.888 214.831 255.628 214.832H201.215V214.832Z" fill="#F7F3EF" stroke="#191919" stroke-width="4" stroke-linecap="round" stroke-linejoin="round"/>
<path d="M245.295 168.604C245.202 164.961 249.925 160.22 255.628 160.22H201.215C202.572 160.219 203.916 160.486 205.17 161.005C206.424 161.524 207.563 162.285 208.523 163.245C209.483 164.204 210.244 165.344 210.763 166.598C211.282 167.852 211.548 169.196 211.548 170.553V178.534L245.295 168.604Z" fill="#F7F3EF" stroke="#191919" stroke-width="4" stroke-linecap="round" stroke-linejoin="round"/>
<path d="M201.215 214.832C203.955 214.832 206.583 213.744 208.521 211.806C210.459 209.868 211.548 207.24 211.548 204.499V170.547C211.548 169.19 211.282 167.846 210.763 166.592C210.244 165.338 209.483 164.198 208.523 163.238C207.563 162.279 206.424 161.518 205.17 160.999C203.916 160.48 202.572 160.213 201.215 160.214H255.628C252.888 160.214 250.26 161.303 248.322 163.24C246.384 165.178 245.295 167.806 245.295 170.547V204.499C245.297 207.239 246.386 209.867 248.324 211.804C250.261 213.741 252.888 214.831 255.628 214.832H201.215V214.832Z" fill="#F7F3EF" stroke="#191919" stroke-width="4" stroke-linecap="round" stroke-linejoin="round"/>
<path d="M325.246 160.214H131.621C127.876 160.188 124.231 158.998 121.193 156.807C118.155 154.616 115.874 151.534 114.667 147.988L113.153 143.644H343.721L342.201 147.988C340.994 151.534 338.713 154.616 335.675 156.807C332.637 158.998 328.992 160.188 325.246 160.214Z" fill="#F7F3EF" stroke="#191919" stroke-width="4" stroke-linecap="round" stroke-linejoin="round"/>
<path d="M237.935 18.6815C237.935 18.6815 250.049 13.3941 245.004 2" stroke="#191919" stroke-width="4" stroke-linecap="round" stroke-linejoin="round"/>
<path d="M236.179 30.2432C239.884 30.2432 242.888 27.2396 242.888 23.5346C242.888 19.8295 239.884 16.826 236.179 16.826C232.474 16.826 229.47 19.8295 229.47 23.5346C229.47 27.2396 232.474 30.2432 236.179 30.2432Z" fill="#EA631F" stroke="#191919" stroke-width="4" stroke-linecap="round" stroke-linejoin="round"/>
</svg>
